<?xml version="1.0" encoding="UTF-8" standalone="no"?>
<!DOCTYPE svg PUBLIC "-//W3C//DTD SVG 1.1//EN"
 "http://www.w3.org/Graphics/SVG/1.1/DTD/svg11.dtd">
<!-- Generated by graphviz version 2.28.0 (20110507.0327)
 -->
<!-- Title: G Pages: 1 -->
<svg width="768pt" height="718pt"
 viewBox="0.00 0.00 767.76 717.50" xmlns="http://www.w3.org/2000/svg" xmlns:xlink="http://www.w3.org/1999/xlink">
<g id="graph1" class="graph" transform="scale(1 1) rotate(0) translate(4 713.504)">
<title>G</title>
<polygon fill="white" stroke="white" points="-4,5 -4,-713.504 764.759,-713.504 764.759,5 -4,5"/>
<!-- 不 -->
<g id="node1" class="node"><title>不</title>
<ellipse fill="none" stroke="black" cx="373.922" cy="-350.086" rx="27" ry="18"/>
<text text-anchor="middle" x="373.922" y="-346.386" font-family="SimSun" font-size="14.00">不</text>
</g>
<!-- 爱不释手 -->
<g id="node3" class="node"><title>爱不释手</title>
<ellipse fill="none" stroke="black" cx="170.467" cy="-477.127" rx="47.169" ry="18"/>
<text text-anchor="middle" x="170.467" y="-473.427" font-family="SimSun" font-size="14.00">爱不释手</text>
</g>
<!-- 不&#45;&gt;爱不释手 -->
<g id="edge2" class="edge"><title>不&#45;&gt;爱不释手</title>
<path fill="none" stroke="black" d="M354.044,-362.498C319.131,-384.299 246.46,-429.676 203.767,-456.334"/>
<polygon fill="black" stroke="black" points="201.765,-453.458 195.136,-461.723 205.472,-459.396 201.765,-453.458"/>
</g>
<!-- 巴不得 -->
<g id="node5" class="node"><title>巴不得</title>
<ellipse fill="none" stroke="black" cx="413.394" cy="-415.61" rx="38.0212" ry="18"/>
<text text-anchor="middle" x="413.394" y="-411.91" font-family="SimSun" font-size="14.00">巴不得</text>
</g>
<!-- 不&#45;&gt;巴不得 -->
<g id="edge4" class="edge"><title>不&#45;&gt;巴不得</title>
<path fill="none" stroke="black" d="M384.087,-366.96C388.225,-373.828 393.102,-381.925 397.679,-389.522"/>
<polygon fill="black" stroke="black" points="394.692,-391.347 402.85,-398.107 400.688,-387.735 394.692,-391.347"/>
</g>
<!-- 不安 -->
<g id="node7" class="node"><title>不安</title>
<ellipse fill="none" stroke="black" cx="285.421" cy="-680.492" rx="29.3722" ry="18"/>
<text text-anchor="middle" x="285.421" y="-676.792" font-family="SimSun" font-size="14.00">不安</text>
</g>
<!-- 不&#45;&gt;不安 -->
<g id="edge6" class="edge"><title>不&#45;&gt;不安</title>
<path fill="none" stroke="black" d="M373.434,-368.462C371.849,-426.287 366.656,-601.362 361.59,-612.425 351.972,-633.434 332.414,-650.689 315.526,-662.57"/>
<polygon fill="black" stroke="black" points="313.361,-659.807 307.005,-668.284 317.259,-665.621 313.361,-659.807"/>
</g>
<!-- 不必 -->
<g id="node9" class="node"><title>不必</title>
<ellipse fill="none" stroke="black" cx="553.369" cy="-556.965" rx="29.3722" ry="18"/>
<text text-anchor="middle" x="553.369" y="-553.265" font-family="SimSun" font-size="14.00">不必</text>
</g>
<!-- 不&#45;&gt;不必 -->
<g id="edge8" class="edge"><title>不&#45;&gt;不必</title>
<path fill="none" stroke="black" d="M393.037,-362.845C407.208,-372.72 426.631,-387.157 441.907,-401.883 447.669,-407.437 449.606,-408.717 453.339,-415.796 469.938,-447.277 457.443,-462.127 475.672,-492.693 487.097,-511.849 506.394,-527.857 522.898,-539.106"/>
<polygon fill="black" stroke="black" points="521.424,-542.323 531.712,-544.855 525.249,-536.46 521.424,-542.323"/>
</g>
<!-- 不但 -->
<g id="node11" class="node"><title>不但</title>
<ellipse fill="none" stroke="black" cx="195.817" cy="-561.395" rx="29.3722" ry="18"/>
<text text-anchor="middle" x="195.817" y="-557.695" font-family="SimSun" font-size="14.00">不但</text>
</g>
<!-- 不&#45;&gt;不但 -->
<g id="edge10" class="edge"><title>不&#45;&gt;不但</title>
<path fill="none" stroke="black" d="M365.347,-367.18C355.735,-386.073 339.462,-417.274 323.971,-443.311 298.876,-485.487 254.127,-521.627 224.708,-542.445"/>
<polygon fill="black" stroke="black" points="222.335,-539.831 216.109,-548.404 226.322,-545.585 222.335,-539.831"/>
</g>
<!-- 不得不 -->
<g id="node13" class="node"><title>不得不</title>
<ellipse fill="none" stroke="black" cx="587.494" cy="-416.374" rx="38.0212" ry="18"/>
<text text-anchor="middle" x="587.494" y="-412.674" font-family="SimSun" font-size="14.00">不得不</text>
</g>
<!-- 不&#45;&gt;不得不 -->
<g id="edge12" class="edge"><title>不&#45;&gt;不得不</title>
<path fill="none" stroke="black" d="M394.913,-361.423C414.856,-371.775 445.943,-386.84 474.401,-396.12 486.578,-400.091 490.05,-399.512 502.64,-401.869 515.035,-404.189 528.477,-406.556 540.929,-408.686"/>
<polygon fill="black" stroke="black" points="540.667,-412.192 551.112,-410.414 541.838,-405.29 540.667,-412.192"/>
</g>
<!-- 不得了 -->
<g id="node15" class="node"><title>不得了</title>
<ellipse fill="none" stroke="black" cx="163.616" cy="-40.5838" rx="38.0212" ry="18"/>
<text text-anchor="middle" x="163.616" y="-36.8838" font-family="SimSun" font-size="14.00">不得了</text>
</g>
<!-- 不&#45;&gt;不得了 -->
<g id="edge14" class="edge"><title>不&#45;&gt;不得了</title>
<path fill="none" stroke="black" d="M360.779,-334.302C333.863,-301.556 271.35,-223.292 227.888,-151.576 210.52,-122.916 191.359,-89.5935 178.517,-66.9957"/>
<polygon fill="black" stroke="black" points="181.4,-64.9851 173.423,-58.0124 175.311,-68.4377 181.4,-64.9851"/>
</g>
<!-- 不得已 -->
<g id="node17" class="node"><title>不得已</title>
<ellipse fill="none" stroke="black" cx="50.5645" cy="-258.202" rx="38.0212" ry="18"/>
<text text-anchor="middle" x="50.5645" y="-254.502" font-family="SimSun" font-size="14.00">不得已</text>
</g>
<!-- 不&#45;&gt;不得已 -->
<g id="edge16" class="edge"><title>不&#45;&gt;不得已</title>
<path fill="none" stroke="black" d="M348.818,-342.952C293.773,-327.311 161.926,-289.846 93.4631,-270.392"/>
<polygon fill="black" stroke="black" points="94.0154,-266.91 83.4395,-267.543 92.102,-273.643 94.0154,-266.91"/>
</g>
<!-- 不断 -->
<g id="node19" class="node"><title>不断</title>
<ellipse fill="none" stroke="black" cx="89.5652" cy="-166.092" rx="29.3722" ry="18"/>
<text text-anchor="middle" x="89.5652" y="-162.392" font-family="SimSun" font-size="14.00">不断</text>
</g>
<!-- 不&#45;&gt;不断 -->
<g id="edge18" class="edge"><title>不&#45;&gt;不断</title>
<path fill="none" stroke="black" d="M349.303,-342.52C321.396,-333.148 275.442,-315.24 241.971,-289.762 235.566,-284.887 234.42,-282.821 230.326,-275.892 227.109,-270.448 228.047,-268.266 225.195,-262.623 221.891,-256.083 221.497,-253.924 216.345,-248.715 200.976,-233.18 152.044,-202.944 119.66,-183.675"/>
<polygon fill="black" stroke="black" points="121.394,-180.634 111.006,-178.552 117.828,-186.658 121.394,-180.634"/>
</g>
<!-- 不妨 -->
<g id="node21" class="node"><title>不妨</title>
<ellipse fill="none" stroke="black" cx="712.996" cy="-267.455" rx="29.3722" ry="18"/>
<text text-anchor="middle" x="712.996" y="-263.755" font-family="SimSun" font-size="14.00">不妨</text>
</g>
<!-- 不&#45;&gt;不妨 -->
<g id="edge20" class="edge"><title>不&#45;&gt;不妨</title>
<path fill="none" stroke="black" d="M399.408,-343.875C458.592,-329.452 605.581,-293.631 675.236,-276.657"/>
<polygon fill="black" stroke="black" points="676.442,-279.965 685.329,-274.197 674.785,-273.164 676.442,-279.965"/>
</g>
<!-- 不敢当 -->
<g id="node23" class="node"><title>不敢当</title>
<ellipse fill="none" stroke="black" cx="145.746" cy="-95.1461" rx="38.0212" ry="18"/>
<text text-anchor="middle" x="145.746" y="-91.4461" font-family="SimSun" font-size="14.00">不敢当</text>
</g>
<!-- 不&#45;&gt;不敢当 -->
<g id="edge22" class="edge"><title>不&#45;&gt;不敢当</title>
<path fill="none" stroke="black" d="M363.345,-333.287C337.817,-293.673 269.321,-192.754 193.594,-126.2 189.115,-122.264 184.095,-118.461 179.037,-114.946"/>
<polygon fill="black" stroke="black" points="180.845,-111.945 170.578,-109.332 176.974,-117.778 180.845,-111.945"/>
</g>
<!-- 不顾 -->
<g id="node25" class="node"><title>不顾</title>
<ellipse fill="none" stroke="black" cx="42.8919" cy="-331.11" rx="29.3722" ry="18"/>
<text text-anchor="middle" x="42.8919" y="-327.41" font-family="SimSun" font-size="14.00">不顾</text>
</g>
<!-- 不&#45;&gt;不顾 -->
<g id="edge24" class="edge"><title>不&#45;&gt;不顾</title>
<path fill="none" stroke="black" d="M346.833,-348.533C288.497,-345.189 150.769,-337.294 82.5714,-333.384"/>
<polygon fill="black" stroke="black" points="82.4299,-329.871 72.246,-332.792 82.0292,-336.859 82.4299,-329.871"/>
</g>
<!-- 不管 -->
<g id="node27" class="node"><title>不管</title>
<ellipse fill="none" stroke="black" cx="293.124" cy="-443.253" rx="29.3722" ry="18"/>
<text text-anchor="middle" x="293.124" y="-439.553" font-family="SimSun" font-size="14.00">不管</text>
</g>
<!-- 不&#45;&gt;不管 -->
<g id="edge26" class="edge"><title>不&#45;&gt;不管</title>
<path fill="none" stroke="black" d="M360.216,-365.89C347.447,-380.613 328.24,-402.761 313.644,-419.591"/>
<polygon fill="black" stroke="black" points="310.805,-417.523 306.897,-427.371 316.093,-422.109 310.805,-417.523"/>
</g>
<!-- 不过 -->
<g id="node29" class="node"><title>不过</title>
<ellipse fill="none" stroke="black" cx="430.06" cy="-506.938" rx="29.3722" ry="18"/>
<text text-anchor="middle" x="430.06" y="-503.238" font-family="SimSun" font-size="14.00">不过</text>
</g>
<!-- 不&#45;&gt;不过 -->
<g id="edge28" class="edge"><title>不&#45;&gt;不过</title>
<path fill="none" stroke="black" d="M371.137,-368.189C369.722,-381.507 369.1,-399.914 373.449,-415.424 380.471,-440.467 396.598,-465.337 409.85,-482.815"/>
<polygon fill="black" stroke="black" points="407.154,-485.05 416.072,-490.77 412.668,-480.737 407.154,-485.05"/>
</g>
<!-- 不好意思 -->
<g id="node31" class="node"><title>不好意思</title>
<ellipse fill="none" stroke="black" cx="57.5795" cy="-463.17" rx="47.169" ry="18"/>
<text text-anchor="middle" x="57.5795" y="-459.47" font-family="SimSun" font-size="14.00">不好意思</text>
</g>
<!-- 不&#45;&gt;不好意思 -->
<g id="edge30" class="edge"><title>不&#45;&gt;不好意思</title>
<path fill="none" stroke="black" d="M352.121,-360.902C330.354,-371.498 295.803,-387.768 265.045,-399.846 221.351,-417.003 209.664,-419.304 164.776,-433.034 145.658,-438.882 124.493,-444.923 106.055,-450.047"/>
<polygon fill="black" stroke="black" points="105.112,-446.676 96.4055,-452.714 106.977,-453.423 105.112,-446.676"/>
</g>
<!-- 不见得 -->
<g id="node33" class="node"><title>不见得</title>
<ellipse fill="none" stroke="black" cx="270.272" cy="-275.93" rx="38.0212" ry="18"/>
<text text-anchor="middle" x="270.272" y="-272.23" font-family="SimSun" font-size="14.00">不见得</text>
</g>
<!-- 不&#45;&gt;不见得 -->
<g id="edge32" class="edge"><title>不&#45;&gt;不见得</title>
<path fill="none" stroke="black" d="M355.392,-336.828C339.979,-325.801 317.754,-309.9 299.878,-297.111"/>
<polygon fill="black" stroke="black" points="301.671,-294.09 291.501,-291.118 297.598,-299.783 301.671,-294.09"/>
</g>
<!-- 不禁 -->
<g id="node35" class="node"><title>不禁</title>
<ellipse fill="none" stroke="black" cx="29.1237" cy="-419.155" rx="29.3722" ry="18"/>
<text text-anchor="middle" x="29.1237" y="-415.455" font-family="SimSun" font-size="14.00">不禁</text>
</g>
<!-- 不&#45;&gt;不禁 -->
<g id="edge34" class="edge"><title>不&#45;&gt;不禁</title>
<path fill="none" stroke="black" d="M347.16,-352.715C318.299,-355.645 271.028,-360.722 230.426,-366.377 214.948,-368.532 210.987,-368.705 195.735,-372.107 182.985,-374.951 110.713,-395.63 65.6431,-408.609"/>
<polygon fill="black" stroke="black" points="64.5612,-405.278 55.9215,-411.411 66.4996,-412.005 64.5612,-405.278"/>
</g>
<!-- 不仅 -->
<g id="node37" class="node"><title>不仅</title>
<ellipse fill="none" stroke="black" cx="543.11" cy="-608.425" rx="29.3722" ry="18"/>
<text text-anchor="middle" x="543.11" y="-604.725" font-family="SimSun" font-size="14.00">不仅</text>
</g>
<!-- 不&#45;&gt;不仅 -->
<g id="edge36" class="edge"><title>不&#45;&gt;不仅</title>
<path fill="none" stroke="black" d="M393.037,-362.845C407.208,-372.72 426.631,-387.157 441.907,-401.883 472.909,-431.766 458.701,-453.119 475.672,-492.693 489.671,-525.334 510.969,-560.219 525.875,-583.054"/>
<polygon fill="black" stroke="black" points="523.007,-585.063 531.441,-591.477 528.847,-581.204 523.007,-585.063"/>
</g>
<!-- 不堪 -->
<g id="node39" class="node"><title>不堪</title>
<ellipse fill="none" stroke="black" cx="330.42" cy="-155.414" rx="29.3722" ry="18"/>
<text text-anchor="middle" x="330.42" y="-151.714" font-family="SimSun" font-size="14.00">不堪</text>
</g>
<!-- 不&#45;&gt;不堪 -->
<g id="edge38" class="edge"><title>不&#45;&gt;不堪</title>
<path fill="none" stroke="black" d="M364.44,-333.11C350.046,-305.871 324.013,-250.279 320.852,-199.319 320.522,-194.005 321.049,-188.404 321.998,-183.046"/>
<polygon fill="black" stroke="black" points="325.436,-183.709 324.23,-173.183 318.609,-182.164 325.436,-183.709"/>
</g>
<!-- 不可思议 -->
<g id="node41" class="node"><title>不可思议</title>
<ellipse fill="none" stroke="black" cx="712.536" cy="-482.841" rx="47.169" ry="18"/>
<text text-anchor="middle" x="712.536" y="-479.141" font-family="SimSun" font-size="14.00">不可思议</text>
</g>
<!-- 不&#45;&gt;不可思议 -->
<g id="edge40" class="edge"><title>不&#45;&gt;不可思议</title>
<path fill="none" stroke="black" d="M396.135,-360.63C416.406,-370.164 447.252,-384.453 474.401,-396.12 511.682,-412.141 521.087,-416.009 559.114,-430.168 595.074,-443.557 636.217,-457.615 666.838,-467.837"/>
<polygon fill="black" stroke="black" points="665.797,-471.179 676.391,-471.015 668.007,-464.537 665.797,-471.179"/>
</g>
<!-- 不客气 -->
<g id="node43" class="node"><title>不客气</title>
<ellipse fill="none" stroke="black" cx="632.454" cy="-582.743" rx="38.0212" ry="18"/>
<text text-anchor="middle" x="632.454" y="-579.043" font-family="SimSun" font-size="14.00">不客气</text>
</g>
<!-- 不&#45;&gt;不客气 -->
<g id="edge42" class="edge"><title>不&#45;&gt;不客气</title>
<path fill="none" stroke="black" d="M397.516,-359.089C441.003,-377.072 533.063,-421.919 573.761,-492.98 578.273,-500.858 574.806,-504.614 578.763,-512.785 586.755,-529.288 599.02,-545.661 609.811,-558.414"/>
<polygon fill="black" stroke="black" points="607.421,-560.999 616.63,-566.237 612.698,-556.399 607.421,-560.999"/>
</g>
<!-- 不愧 -->
<g id="node45" class="node"><title>不愧</title>
<ellipse fill="none" stroke="black" cx="439.45" cy="-62.0073" rx="29.3722" ry="18"/>
<text text-anchor="middle" x="439.45" y="-58.3073" font-family="SimSun" font-size="14.00">不愧</text>
</g>
<!-- 不&#45;&gt;不愧 -->
<g id="edge44" class="edge"><title>不&#45;&gt;不愧</title>
<path fill="none" stroke="black" d="M377.994,-332.194C382.99,-310.888 392.032,-274.315 401.984,-243.565 408.427,-223.658 413.598,-219.877 418.94,-199.646 428.742,-162.528 434.278,-118.458 437.067,-90.3677"/>
<polygon fill="black" stroke="black" points="440.583,-90.3641 438.036,-80.0799 433.614,-89.7076 440.583,-90.3641"/>
</g>
<!-- 不料 -->
<g id="node47" class="node"><title>不料</title>
<ellipse fill="none" stroke="black" cx="258.734" cy="-151.771" rx="29.3722" ry="18"/>
<text text-anchor="middle" x="258.734" y="-148.071" font-family="SimSun" font-size="14.00">不料</text>
</g>
<!-- 不&#45;&gt;不料 -->
<g id="edge46" class="edge"><title>不&#45;&gt;不料</title>
<path fill="none" stroke="black" d="M364.101,-333.178C343.92,-298.432 297.674,-218.812 273.724,-177.579"/>
<polygon fill="black" stroke="black" points="276.743,-175.807 268.694,-168.918 270.69,-179.323 276.743,-175.807"/>
</g>
<!-- 不免 -->
<g id="node49" class="node"><title>不免</title>
<ellipse fill="none" stroke="black" cx="681.68" cy="-164.033" rx="29.3722" ry="18"/>
<text text-anchor="middle" x="681.68" y="-160.333" font-family="SimSun" font-size="14.00">不免</text>
</g>
<!-- 不&#45;&gt;不免 -->
<g id="edge48" class="edge"><title>不&#45;&gt;不免</title>
<path fill="none" stroke="black" d="M397.39,-341.149C430.666,-327.906 492.734,-301.065 539.692,-268.245 578.81,-240.904 578.03,-221.101 617.422,-194.158 626.593,-187.885 637.277,-182.293 647.269,-177.681"/>
<polygon fill="black" stroke="black" points="648.836,-180.816 656.566,-173.57 646.004,-174.414 648.836,-180.816"/>
</g>
<!-- 不耐烦 -->
<g id="node51" class="node"><title>不耐烦</title>
<ellipse fill="none" stroke="black" cx="512.287" cy="-676.295" rx="38.0212" ry="18"/>
<text text-anchor="middle" x="512.287" y="-672.595" font-family="SimSun" font-size="14.00">不耐烦</text>
</g>
<!-- 不&#45;&gt;不耐烦 -->
<g id="edge50" class="edge"><title>不&#45;&gt;不耐烦</title>
<path fill="none" stroke="black" d="M370.563,-368.1C368.817,-381.537 368.035,-400.132 373.449,-415.424 392.241,-468.502 435.659,-456.754 460.906,-507.083 487.082,-559.262 493.897,-573.132 507.399,-629.926 508.756,-635.635 509.737,-641.83 510.445,-647.777"/>
<polygon fill="black" stroke="black" points="506.994,-648.443 511.449,-658.056 513.961,-647.763 506.994,-648.443"/>
</g>
<!-- 不然 -->
<g id="node53" class="node"><title>不然</title>
<ellipse fill="none" stroke="black" cx="609.651" cy="-626.755" rx="29.3722" ry="18"/>
<text text-anchor="middle" x="609.651" y="-623.055" font-family="SimSun" font-size="14.00">不然</text>
</g>
<!-- 不&#45;&gt;不然 -->
<g id="edge52" class="edge"><title>不&#45;&gt;不然</title>
<path fill="none" stroke="black" d="M393.037,-362.845C407.208,-372.72 426.631,-387.157 441.907,-401.883 472.909,-431.766 456.885,-453.948 475.672,-492.693 494.275,-531.056 501.254,-540.636 531.437,-570.748 544.434,-583.715 550.173,-584 565.105,-594.682 570.729,-598.706 576.743,-603.025 582.475,-607.149"/>
<polygon fill="black" stroke="black" points="580.433,-609.991 590.593,-612.995 584.524,-604.311 580.433,-609.991"/>
</g>
<!-- 不如 -->
<g id="node55" class="node"><title>不如</title>
<ellipse fill="none" stroke="black" cx="517.922" cy="-254.358" rx="29.3722" ry="18"/>
<text text-anchor="middle" x="517.922" y="-250.658" font-family="SimSun" font-size="14.00">不如</text>
</g>
<!-- 不&#45;&gt;不如 -->
<g id="edge54" class="edge"><title>不&#45;&gt;不如</title>
<path fill="none" stroke="black" d="M393.044,-337.374C417.727,-320.966 460.887,-292.274 489.438,-273.294"/>
<polygon fill="black" stroke="black" points="491.403,-276.191 497.793,-267.74 487.528,-270.361 491.403,-276.191"/>
</g>
<!-- 不时 -->
<g id="node57" class="node"><title>不时</title>
<ellipse fill="none" stroke="black" cx="194.349" cy="-262.457" rx="29.3722" ry="18"/>
<text text-anchor="middle" x="194.349" y="-258.757" font-family="SimSun" font-size="14.00">不时</text>
</g>
<!-- 不&#45;&gt;不时 -->
<g id="edge56" class="edge"><title>不&#45;&gt;不时</title>
<path fill="none" stroke="black" d="M350.732,-340.254C324.137,-328.802 279.384,-308.989 241.971,-289.762 236.185,-286.789 230.1,-283.461 224.286,-280.177"/>
<polygon fill="black" stroke="black" points="225.871,-277.052 215.455,-275.113 222.388,-283.124 225.871,-277.052"/>
</g>
<!-- 不惜 -->
<g id="node59" class="node"><title>不惜</title>
<ellipse fill="none" stroke="black" cx="616.057" cy="-75.0521" rx="29.3722" ry="18"/>
<text text-anchor="middle" x="616.057" y="-71.3521" font-family="SimSun" font-size="14.00">不惜</text>
</g>
<!-- 不&#45;&gt;不惜 -->
<g id="edge58" class="edge"><title>不&#45;&gt;不惜</title>
<path fill="none" stroke="black" d="M393.213,-337.176C418.171,-319.332 460.924,-284.645 481.877,-243.62 498.138,-211.784 484.826,-197.345 501.102,-165.517 504.778,-158.328 506.969,-157.189 512.862,-151.669 536.193,-129.816 565.729,-108.428 587.219,-93.8273"/>
<polygon fill="black" stroke="black" points="589.255,-96.676 595.605,-88.1956 585.352,-90.8646 589.255,-96.676"/>
</g>
<!-- 不相上下 -->
<g id="node61" class="node"><title>不相上下</title>
<ellipse fill="none" stroke="black" cx="251.779" cy="-84.6116" rx="47.169" ry="18"/>
<text text-anchor="middle" x="251.779" y="-80.9116" font-family="SimSun" font-size="14.00">不相上下</text>
</g>
<!-- 不&#45;&gt;不相上下 -->
<g id="edge60" class="edge"><title>不&#45;&gt;不相上下</title>
<path fill="none" stroke="black" d="M367.212,-332.575C353.68,-297.68 321.66,-217.216 289.58,-151.966 282.838,-138.254 274.608,-123.403 267.551,-111.145"/>
<polygon fill="black" stroke="black" points="270.481,-109.221 262.427,-102.338 264.431,-112.741 270.481,-109.221"/>
</g>
<!-- 不像话 -->
<g id="node63" class="node"><title>不像话</title>
<ellipse fill="none" stroke="black" cx="515.638" cy="-19.3235" rx="38.0212" ry="18"/>
<text text-anchor="middle" x="515.638" y="-15.6235" font-family="SimSun" font-size="14.00">不像话</text>
</g>
<!-- 不&#45;&gt;不像话 -->
<g id="edge62" class="edge"><title>不&#45;&gt;不像话</title>
<path fill="none" stroke="black" d="M377.567,-332.046C382.152,-310.597 390.798,-273.888 401.984,-243.565 427.886,-173.352 440.6,-158.292 475.112,-91.886 483.167,-76.3859 492.667,-59.3183 500.444,-45.6321"/>
<polygon fill="black" stroke="black" points="503.592,-47.1773 505.513,-36.7581 497.514,-43.705 503.592,-47.1773"/>
</g>
<!-- 不屑一顾 -->
<g id="node65" class="node"><title>不屑一顾</title>
<ellipse fill="none" stroke="black" cx="57.2728" cy="-507.187" rx="47.169" ry="18"/>
<text text-anchor="middle" x="57.2728" y="-503.487" font-family="SimSun" font-size="14.00">不屑一顾</text>
</g>
<!-- 不&#45;&gt;不屑一顾 -->
<g id="edge64" class="edge"><title>不&#45;&gt;不屑一顾</title>
<path fill="none" stroke="black" d="M351.358,-360.206C308.79,-379.431 213.896,-422.922 135.822,-463.254 121.385,-470.712 105.714,-479.361 92.1947,-487.003"/>
<polygon fill="black" stroke="black" points="90.1838,-484.12 83.2206,-492.105 93.6437,-490.205 90.1838,-484.12"/>
</g>
<!-- 不言而喻 -->
<g id="node67" class="node"><title>不言而喻</title>
<ellipse fill="none" stroke="black" cx="205.691" cy="-198.113" rx="47.169" ry="18"/>
<text text-anchor="middle" x="205.691" y="-194.413" font-family="SimSun" font-size="14.00">不言而喻</text>
</g>
<!-- 不&#45;&gt;不言而喻 -->
<g id="edge66" class="edge"><title>不&#45;&gt;不言而喻</title>
<path fill="none" stroke="black" d="M361.985,-333.724C347.995,-315.165 323.536,-284.568 298.574,-262.098 280.565,-245.886 258.262,-230.396 240.026,-218.718"/>
<polygon fill="black" stroke="black" points="241.763,-215.676 231.437,-213.306 238.031,-221.598 241.763,-215.676"/>
</g>
<!-- 不要紧 -->
<g id="node69" class="node"><title>不要紧</title>
<ellipse fill="none" stroke="black" cx="406.448" cy="-584.802" rx="38.0212" ry="18"/>
<text text-anchor="middle" x="406.448" y="-581.102" font-family="SimSun" font-size="14.00">不要紧</text>
</g>
<!-- 不&#45;&gt;不要紧 -->
<g id="edge68" class="edge"><title>不&#45;&gt;不要紧</title>
<path fill="none" stroke="black" d="M372.826,-368.153C372.264,-381.294 371.971,-399.498 373.449,-415.424 378.123,-465.759 390.972,-523.327 399.189,-556.724"/>
<polygon fill="black" stroke="black" points="395.856,-557.826 401.678,-566.678 402.647,-556.128 395.856,-557.826"/>
</g>
<!-- 不由得 -->
<g id="node71" class="node"><title>不由得</title>
<ellipse fill="none" stroke="black" cx="618.708" cy="-512.93" rx="38.0212" ry="18"/>
<text text-anchor="middle" x="618.708" y="-509.23" font-family="SimSun" font-size="14.00">不由得</text>
</g>
<!-- 不&#45;&gt;不由得 -->
<g id="edge70" class="edge"><title>不&#45;&gt;不由得</title>
<path fill="none" stroke="black" d="M393.13,-362.864C435.428,-391.003 536.914,-458.517 588.095,-492.565"/>
<polygon fill="black" stroke="black" points="586.187,-495.499 596.452,-498.124 590.064,-489.671 586.187,-495.499"/>
</g>
<!-- 不择手段 -->
<g id="node73" class="node"><title>不择手段</title>
<ellipse fill="none" stroke="black" cx="354.748" cy="-88.5892" rx="47.169" ry="18"/>
<text text-anchor="middle" x="354.748" y="-84.8892" font-family="SimSun" font-size="14.00">不择手段</text>
</g>
<!-- 不&#45;&gt;不择手段 -->
<g id="edge72" class="edge"><title>不&#45;&gt;不择手段</title>
<path fill="none" stroke="black" d="M377.994,-332.194C382.99,-310.888 392.032,-274.315 401.984,-243.565 408.427,-223.658 420.567,-220.507 418.94,-199.646 416.372,-166.717 395.234,-134.667 377.905,-113.53"/>
<polygon fill="black" stroke="black" points="380.402,-111.064 371.257,-105.713 375.069,-115.599 380.402,-111.064"/>
</g>
<!-- 不止 -->
<g id="node75" class="node"><title>不止</title>
<ellipse fill="none" stroke="black" cx="644.064" cy="-306.749" rx="29.3722" ry="18"/>
<text text-anchor="middle" x="644.064" y="-303.049" font-family="SimSun" font-size="14.00">不止</text>
</g>
<!-- 不&#45;&gt;不止 -->
<g id="edge74" class="edge"><title>不&#45;&gt;不止</title>
<path fill="none" stroke="black" d="M398.331,-342.123C436.195,-330.309 511.604,-308.912 577.569,-303.195 586.427,-302.427 595.964,-302.442 604.972,-302.838"/>
<polygon fill="black" stroke="black" points="605.041,-306.348 615.232,-303.453 605.46,-299.36 605.041,-306.348"/>
</g>
<!-- 不足 -->
<g id="node77" class="node"><title>不足</title>
<ellipse fill="none" stroke="black" cx="351.944" cy="-690.411" rx="29.3722" ry="18"/>
<text text-anchor="middle" x="351.944" y="-686.711" font-family="SimSun" font-size="14.00">不足</text>
</g>
<!-- 不&#45;&gt;不足 -->
<g id="edge76" class="edge"><title>不&#45;&gt;不足</title>
<path fill="none" stroke="black" d="M373.544,-368.246C372.552,-410.918 369.392,-520.883 361.59,-612.425 360.183,-628.942 357.938,-647.349 355.968,-662.13"/>
<polygon fill="black" stroke="black" points="352.482,-661.793 354.598,-672.174 359.418,-662.739 352.482,-661.793"/>
</g>
<!-- 层出不穷 -->
<g id="node79" class="node"><title>层出不穷</title>
<ellipse fill="none" stroke="black" cx="524.157" cy="-91.9519" rx="47.169" ry="18"/>
<text text-anchor="middle" x="524.157" y="-88.2519" font-family="SimSun" font-size="14.00">层出不穷</text>
</g>
<!-- 不&#45;&gt;层出不穷 -->
<g id="edge78" class="edge"><title>不&#45;&gt;层出不穷</title>
<path fill="none" stroke="black" d="M376.331,-331.923C379.757,-310.034 387.32,-272.581 401.984,-243.565 427.349,-193.374 471.341,-144.39 499.039,-116.24"/>
<polygon fill="black" stroke="black" points="501.807,-118.421 506.39,-108.869 496.85,-113.478 501.807,-118.421"/>
</g>
<!-- 差不多 -->
<g id="node81" class="node"><title>差不多</title>
<ellipse fill="none" stroke="black" cx="441.931" cy="-243.593" rx="38.0212" ry="18"/>
<text text-anchor="middle" x="441.931" y="-239.893" font-family="SimSun" font-size="14.00">差不多</text>
</g>
<!-- 不&#45;&gt;差不多 -->
<g id="edge80" class="edge"><title>不&#45;&gt;差不多</title>
<path fill="none" stroke="black" d="M384.549,-333.446C395.434,-316.401 412.514,-289.656 425.212,-269.772"/>
<polygon fill="black" stroke="black" points="428.268,-271.49 430.701,-261.178 422.369,-267.722 428.268,-271.49"/>
</g>
<!-- 川流不息 -->
<g id="node83" class="node"><title>川流不息</title>
<ellipse fill="none" stroke="black" cx="524.717" cy="-492.837" rx="47.169" ry="18"/>
<text text-anchor="middle" x="524.717" y="-489.137" font-family="SimSun" font-size="14.00">川流不息</text>
</g>
<!-- 不&#45;&gt;川流不息 -->
<g id="edge82" class="edge"><title>不&#45;&gt;川流不息</title>
<path fill="none" stroke="black" d="M392.822,-363.074C406.882,-373.067 426.262,-387.549 441.907,-401.883 464.539,-422.616 487.862,-448.739 503.965,-467.664"/>
<polygon fill="black" stroke="black" points="501.492,-470.161 510.614,-475.552 506.845,-465.65 501.492,-470.161"/>
</g>
<!-- 从容不迫 -->
<g id="node85" class="node"><title>从容不迫</title>
<ellipse fill="none" stroke="black" cx="369.896" cy="-199.483" rx="47.169" ry="18"/>
<text text-anchor="middle" x="369.896" y="-195.783" font-family="SimSun" font-size="14.00">从容不迫</text>
</g>
<!-- 不&#45;&gt;从容不迫 -->
<g id="edge84" class="edge"><title>不&#45;&gt;从容不迫</title>
<path fill="none" stroke="black" d="M373.437,-331.92C372.744,-306.026 371.468,-258.267 370.651,-227.732"/>
<polygon fill="black" stroke="black" points="374.15,-227.616 370.384,-217.713 367.152,-227.803 374.15,-227.616"/>
</g>
<!-- 大不了 -->
<g id="node87" class="node"><title>大不了</title>
<ellipse fill="none" stroke="black" cx="80.3233" cy="-211.102" rx="38.0212" ry="18"/>
<text text-anchor="middle" x="80.3233" y="-207.402" font-family="SimSun" font-size="14.00">大不了</text>
</g>
<!-- 不&#45;&gt;大不了 -->
<g id="edge86" class="edge"><title>不&#45;&gt;大不了</title>
<path fill="none" stroke="black" d="M348.83,-343.223C309.796,-332.039 232.742,-307.907 172.354,-276.199 149.273,-264.081 125.295,-246.949 107.603,-233.302"/>
<polygon fill="black" stroke="black" points="109.484,-230.33 99.4535,-226.92 105.168,-235.841 109.484,-230.33"/>
</g>
<!-- 得不偿失 -->
<g id="node89" class="node"><title>得不偿失</title>
<ellipse fill="none" stroke="black" cx="312.545" cy="-612.308" rx="47.169" ry="18"/>
<text text-anchor="middle" x="312.545" y="-608.608" font-family="SimSun" font-size="14.00">得不偿失</text>
</g>
<!-- 不&#45;&gt;得不偿失 -->
<g id="edge88" class="edge"><title>不&#45;&gt;得不偿失</title>
<path fill="none" stroke="black" d="M373.554,-368.262C372.597,-407.451 369.442,-498.742 360.418,-528.26 354.098,-548.934 342.028,-570.069 331.59,-585.973"/>
<polygon fill="black" stroke="black" points="328.396,-584.447 325.688,-594.69 334.193,-588.372 328.396,-584.447"/>
</g>
<!-- 对不起 -->
<g id="node91" class="node"><title>对不起</title>
<ellipse fill="none" stroke="black" cx="427.566" cy="-691.504" rx="38.0212" ry="18"/>
<text text-anchor="middle" x="427.566" y="-687.804" font-family="SimSun" font-size="14.00">对不起</text>
</g>
<!-- 不&#45;&gt;对不起 -->
<g id="edge90" class="edge"><title>不&#45;&gt;对不起</title>
<path fill="none" stroke="black" d="M372.09,-368.089C367.451,-415.658 356.306,-543.838 366.502,-584.781 374.039,-615.05 392.867,-645.535 407.641,-666.128"/>
<polygon fill="black" stroke="black" points="404.928,-668.347 413.68,-674.318 410.563,-664.193 404.928,-668.347"/>
</g>
<!-- 供不应求 -->
<g id="node93" class="node"><title>供不应求</title>
<ellipse fill="none" stroke="black" cx="652.015" cy="-208.052" rx="47.169" ry="18"/>
<text text-anchor="middle" x="652.015" y="-204.352" font-family="SimSun" font-size="14.00">供不应求</text>
</g>
<!-- 不&#45;&gt;供不应求 -->
<g id="edge92" class="edge"><title>不&#45;&gt;供不应求</title>
<path fill="none" stroke="black" d="M397.15,-340.796C430.138,-327.128 491.861,-299.78 539.692,-268.245 556.883,-256.911 557.247,-248.725 574.912,-238.145 584.445,-232.436 595.253,-227.43 605.697,-223.223"/>
<polygon fill="black" stroke="black" points="607.065,-226.447 615.139,-219.587 604.55,-219.915 607.065,-226.447"/>
</g>
<!-- 怪不得 -->
<g id="node95" class="node"><title>怪不得</title>
<ellipse fill="none" stroke="black" cx="136.57" cy="-419.155" rx="38.0212" ry="18"/>
<text text-anchor="middle" x="136.57" y="-415.455" font-family="SimSun" font-size="14.00">怪不得</text>
</g>
<!-- 不&#45;&gt;怪不得 -->
<g id="edge94" class="edge"><title>不&#45;&gt;怪不得</title>
<path fill="none" stroke="black" d="M352.89,-361.736C331.428,-373.129 296.849,-390.14 265.045,-399.846 250.098,-404.407 245.796,-403.183 230.353,-405.577 215.163,-407.931 198.567,-410.375 183.616,-412.531"/>
<polygon fill="black" stroke="black" points="182.968,-409.088 173.566,-413.972 183.961,-416.017 182.968,-409.088"/>
</g>
<!-- 恨不得 -->
<g id="node97" class="node"><title>恨不得</title>
<ellipse fill="none" stroke="black" cx="388.285" cy="-18" rx="38.0212" ry="18"/>
<text text-anchor="middle" x="388.285" y="-14.3" font-family="SimSun" font-size="14.00">恨不得</text>
</g>
<!-- 不&#45;&gt;恨不得 -->
<g id="edge96" class="edge"><title>不&#45;&gt;恨不得</title>
<path fill="none" stroke="black" d="M377.994,-332.194C382.99,-310.888 392.032,-274.315 401.984,-243.565 408.427,-223.658 416.51,-220.428 418.94,-199.646 425.364,-144.715 409.121,-81.1095 397.903,-45.6147"/>
<polygon fill="black" stroke="black" points="401.182,-44.3824 394.754,-35.9605 394.527,-46.5529 401.182,-44.3824"/>
</g>
<!-- 看不起 -->
<g id="node99" class="node"><title>看不起</title>
<ellipse fill="none" stroke="black" cx="502.664" cy="-382.269" rx="38.0212" ry="18"/>
<text text-anchor="middle" x="502.664" y="-378.569" font-family="SimSun" font-size="14.00">看不起</text>
</g>
<!-- 不&#45;&gt;看不起 -->
<g id="edge98" class="edge"><title>不&#45;&gt;看不起</title>
<path fill="none" stroke="black" d="M399.358,-356.444C416.283,-360.675 438.962,-366.345 458.759,-371.293"/>
<polygon fill="black" stroke="black" points="457.954,-374.7 468.504,-373.73 459.652,-367.909 457.954,-374.7"/>
</g>
<!-- 刻不容缓 -->
<g id="node101" class="node"><title>刻不容缓</title>
<ellipse fill="none" stroke="black" cx="200.667" cy="-649.442" rx="47.169" ry="18"/>
<text text-anchor="middle" x="200.667" y="-645.742" font-family="SimSun" font-size="14.00">刻不容缓</text>
</g>
<!-- 不&#45;&gt;刻不容缓 -->
<g id="edge100" class="edge"><title>不&#45;&gt;刻不容缓</title>
<path fill="none" stroke="black" d="M365.347,-367.18C355.735,-386.073 339.462,-417.274 323.971,-443.311 300.15,-483.347 286.829,-488.466 262.327,-528.089 243.016,-559.319 224.432,-597.342 212.807,-622.409"/>
<polygon fill="black" stroke="black" points="209.551,-621.112 208.56,-631.66 215.913,-624.032 209.551,-621.112"/>
</g>
<!-- 来不及 -->
<g id="node103" class="node"><title>来不及</title>
<ellipse fill="none" stroke="black" cx="126.346" cy="-605.402" rx="38.0212" ry="18"/>
<text text-anchor="middle" x="126.346" y="-601.702" font-family="SimSun" font-size="14.00">来不及</text>
</g>
<!-- 不&#45;&gt;来不及 -->
<g id="edge102" class="edge"><title>不&#45;&gt;来不及</title>
<path fill="none" stroke="black" d="M354.755,-362.948C333.351,-377.742 298.196,-403.353 271.376,-429.352 220.92,-478.266 170.724,-543.963 144.674,-579.67"/>
<polygon fill="black" stroke="black" points="141.619,-577.922 138.586,-588.073 147.287,-582.029 141.619,-577.922"/>
</g>
<!-- 了不起 -->
<g id="node105" class="node"><title>了不起</title>
<ellipse fill="none" stroke="black" cx="541.049" cy="-165.558" rx="38.0212" ry="18"/>
<text text-anchor="middle" x="541.049" y="-161.858" font-family="SimSun" font-size="14.00">了不起</text>
</g>
<!-- 不&#45;&gt;了不起 -->
<g id="edge104" class="edge"><title>不&#45;&gt;了不起</title>
<path fill="none" stroke="black" d="M390.851,-335.649C413.195,-316.115 453.061,-279.56 481.877,-243.62 495.79,-226.269 510.93,-206.273 522.413,-190.863"/>
<polygon fill="black" stroke="black" points="525.234,-192.935 528.385,-182.819 519.614,-188.762 525.234,-192.935"/>
</g>
<!-- 络绎不绝 -->
<g id="node107" class="node"><title>络绎不绝</title>
<ellipse fill="none" stroke="black" cx="293.25" cy="-32.7764" rx="47.169" ry="18"/>
<text text-anchor="middle" x="293.25" y="-29.0764" font-family="SimSun" font-size="14.00">络绎不绝</text>
</g>
<!-- 不&#45;&gt;络绎不绝 -->
<g id="edge106" class="edge"><title>不&#45;&gt;络绎不绝</title>
<path fill="none" stroke="black" d="M364.821,-333.008C347.765,-299.889 311.63,-224.136 299.573,-155.336 294.156,-124.426 302.816,-116.058 300.824,-84.7405 300.331,-76.984 299.326,-68.6309 298.205,-60.9388"/>
<polygon fill="black" stroke="black" points="301.65,-60.3137 296.642,-50.9772 294.735,-61.3989 301.65,-60.3137"/>
</g>
<!-- 迫不及待 -->
<g id="node109" class="node"><title>迫不及待</title>
<ellipse fill="none" stroke="black" cx="704.994" cy="-438.801" rx="47.169" ry="18"/>
<text text-anchor="middle" x="704.994" y="-435.101" font-family="SimSun" font-size="14.00">迫不及待</text>
</g>
<!-- 不&#45;&gt;迫不及待 -->
<g id="edge108" class="edge"><title>不&#45;&gt;迫不及待</title>
<path fill="none" stroke="black" d="M401.153,-351.925C427.285,-353.884 467.815,-357.429 502.689,-362.669 555.437,-370.594 566.422,-382.587 615.873,-402.58 631.242,-408.794 648.091,-415.634 662.961,-421.681"/>
<polygon fill="black" stroke="black" points="661.831,-425 672.412,-425.526 664.468,-418.516 661.831,-425"/>
</g>
<!-- 锲而不舍 -->
<g id="node111" class="node"><title>锲而不舍</title>
<ellipse fill="none" stroke="black" cx="110.97" cy="-551.188" rx="47.169" ry="18"/>
<text text-anchor="middle" x="110.97" y="-547.488" font-family="SimSun" font-size="14.00">锲而不舍</text>
</g>
<!-- 不&#45;&gt;锲而不舍 -->
<g id="edge110" class="edge"><title>不&#45;&gt;锲而不舍</title>
<path fill="none" stroke="black" d="M355.371,-363.627C334.519,-379.029 299.856,-405.183 271.376,-429.352 240.706,-455.38 236.912,-466.367 205.111,-491.001 186.567,-505.366 164.537,-519.589 146.452,-530.599"/>
<polygon fill="black" stroke="black" points="144.159,-527.894 137.393,-536.048 147.767,-533.893 144.159,-527.894"/>
</g>
<!-- 忍不住 -->
<g id="node113" class="node"><title>忍不住</title>
<ellipse fill="none" stroke="black" cx="674.891" cy="-394.782" rx="38.0212" ry="18"/>
<text text-anchor="middle" x="674.891" y="-391.082" font-family="SimSun" font-size="14.00">忍不住</text>
</g>
<!-- 不&#45;&gt;忍不住 -->
<g id="edge112" class="edge"><title>不&#45;&gt;忍不住</title>
<path fill="none" stroke="black" d="M401.135,-352.054C427.253,-354.106 467.773,-357.717 502.689,-362.669 546.126,-368.829 595.291,-378.244 629.935,-385.29"/>
<polygon fill="black" stroke="black" points="629.251,-388.722 639.75,-387.301 630.656,-381.865 629.251,-388.722"/>
</g>
<!-- 舍不得 -->
<g id="node115" class="node"><title>舍不得</title>
<ellipse fill="none" stroke="black" cx="165.219" cy="-139.996" rx="38.0212" ry="18"/>
<text text-anchor="middle" x="165.219" y="-136.296" font-family="SimSun" font-size="14.00">舍不得</text>
</g>
<!-- 不&#45;&gt;舍不得 -->
<g id="edge114" class="edge"><title>不&#45;&gt;舍不得</title>
<path fill="none" stroke="black" d="M364.261,-333.262C344.719,-300.532 297.464,-227.702 240.415,-184.271 227.878,-174.727 213.118,-165.631 200.009,-158.193"/>
<polygon fill="black" stroke="black" points="201.686,-155.122 191.245,-153.324 198.287,-161.241 201.686,-155.122"/>
</g>
<!-- 受不了 -->
<g id="node117" class="node"><title>受不了</title>
<ellipse fill="none" stroke="black" cx="704.728" cy="-350.782" rx="38.0212" ry="18"/>
<text text-anchor="middle" x="704.728" y="-347.082" font-family="SimSun" font-size="14.00">受不了</text>
</g>
<!-- 不&#45;&gt;受不了 -->
<g id="edge116" class="edge"><title>不&#45;&gt;受不了</title>
<path fill="none" stroke="black" d="M400.993,-350.143C456.768,-350.26 585.164,-350.53 655.853,-350.679"/>
<polygon fill="black" stroke="black" points="656.258,-354.18 666.265,-350.701 656.272,-347.18 656.258,-354.18"/>
</g>
<!-- 说不定 -->
<g id="node119" class="node"><title>说不定</title>
<ellipse fill="none" stroke="black" cx="104.289" cy="-375.139" rx="38.0212" ry="18"/>
<text text-anchor="middle" x="104.289" y="-371.439" font-family="SimSun" font-size="14.00">说不定</text>
</g>
<!-- 不&#45;&gt;说不定 -->
<g id="edge118" class="edge"><title>不&#45;&gt;说不定</title>
<path fill="none" stroke="black" d="M347.083,-352.58C301.688,-356.798 209.159,-365.395 152.352,-370.673"/>
<polygon fill="black" stroke="black" points="151.813,-367.208 142.18,-371.619 152.461,-374.178 151.813,-367.208"/>
</g>
<!-- 滔滔不绝 -->
<g id="node121" class="node"><title>滔滔不绝</title>
<ellipse fill="none" stroke="black" cx="609.404" cy="-252.079" rx="47.169" ry="18"/>
<text text-anchor="middle" x="609.404" y="-248.379" font-family="SimSun" font-size="14.00">滔滔不绝</text>
</g>
<!-- 不&#45;&gt;滔滔不绝 -->
<g id="edge120" class="edge"><title>不&#45;&gt;滔滔不绝</title>
<path fill="none" stroke="black" d="M396.93,-340.51C436.531,-324.028 518.105,-290.078 567.859,-269.37"/>
<polygon fill="black" stroke="black" points="569.476,-272.488 577.363,-265.415 566.786,-266.026 569.476,-272.488"/>
</g>
<!-- 微不足道 -->
<g id="node123" class="node"><title>微不足道</title>
<ellipse fill="none" stroke="black" cx="230.39" cy="-385.977" rx="47.169" ry="18"/>
<text text-anchor="middle" x="230.39" y="-382.277" font-family="SimSun" font-size="14.00">微不足道</text>
</g>
<!-- 不&#45;&gt;微不足道 -->
<g id="edge122" class="edge"><title>不&#45;&gt;微不足道</title>
<path fill="none" stroke="black" d="M348.592,-356.42C329.664,-361.153 303.183,-367.774 280.082,-373.551"/>
<polygon fill="black" stroke="black" points="278.936,-370.229 270.084,-376.051 280.635,-377.02 278.936,-370.229"/>
</g>
<!-- 无微不至 -->
<g id="node125" class="node"><title>无微不至</title>
<ellipse fill="none" stroke="black" cx="458.354" cy="-629.84" rx="47.169" ry="18"/>
<text text-anchor="middle" x="458.354" y="-626.14" font-family="SimSun" font-size="14.00">无微不至</text>
</g>
<!-- 不&#45;&gt;无微不至 -->
<g id="edge124" class="edge"><title>不&#45;&gt;无微不至</title>
<path fill="none" stroke="black" d="M372.43,-368.199C371.676,-381.361 371.316,-399.572 373.449,-415.424 379.078,-457.239 382.421,-468.087 399.213,-506.793 415.343,-543.972 430.548,-547.524 446.395,-584.824 448.648,-590.127 450.573,-595.965 452.178,-601.63"/>
<polygon fill="black" stroke="black" points="448.834,-602.679 454.724,-611.486 455.612,-600.928 448.834,-602.679"/>
</g>
<!-- 要不 -->
<g id="node127" class="node"><title>要不</title>
<ellipse fill="none" stroke="black" cx="577.507" cy="-322.795" rx="29.3722" ry="18"/>
<text text-anchor="middle" x="577.507" y="-319.095" font-family="SimSun" font-size="14.00">要不</text>
</g>
<!-- 不&#45;&gt;要不 -->
<g id="edge126" class="edge"><title>不&#45;&gt;要不</title>
<path fill="none" stroke="black" d="M400.537,-346.518C435.835,-341.786 498.381,-333.402 538.876,-327.974"/>
<polygon fill="black" stroke="black" points="539.471,-331.425 548.918,-326.628 538.541,-324.487 539.471,-331.425"/>
</g>
<!-- 要不然 -->
<g id="node129" class="node"><title>要不然</title>
<ellipse fill="none" stroke="black" cx="118.706" cy="-302.219" rx="38.0212" ry="18"/>
<text text-anchor="middle" x="118.706" y="-298.519" font-family="SimSun" font-size="14.00">要不然</text>
</g>
<!-- 不&#45;&gt;要不然 -->
<g id="edge128" class="edge"><title>不&#45;&gt;要不然</title>
<path fill="none" stroke="black" d="M347.571,-345.144C304.378,-337.043 217.99,-320.84 164.582,-310.824"/>
<polygon fill="black" stroke="black" points="165.161,-307.371 154.687,-308.968 163.87,-314.251 165.161,-307.371"/>
</g>
<!-- 一丝不苟 -->
<g id="node131" class="node"><title>一丝不苟</title>
<ellipse fill="none" stroke="black" cx="627.088" cy="-120.011" rx="47.169" ry="18"/>
<text text-anchor="middle" x="627.088" y="-116.311" font-family="SimSun" font-size="14.00">一丝不苟</text>
</g>
<!-- 不&#45;&gt;一丝不苟 -->
<g id="edge130" class="edge"><title>不&#45;&gt;一丝不苟</title>
<path fill="none" stroke="black" d="M389.973,-335.363C413.185,-314.148 457.572,-273.861 496.152,-240.472 528.15,-212.781 538.196,-208.208 569.236,-179.446 581.135,-168.421 593.765,-155.589 604.178,-144.676"/>
<polygon fill="black" stroke="black" points="606.995,-146.791 611.326,-137.122 601.911,-141.979 606.995,-146.791"/>
</g>
<!-- 有条不紊 -->
<g id="node133" class="node"><title>有条不紊</title>
<ellipse fill="none" stroke="black" cx="311.373" cy="-528.175" rx="47.169" ry="18"/>
<text text-anchor="middle" x="311.373" y="-524.475" font-family="SimSun" font-size="14.00">有条不紊</text>
</g>
<!-- 不&#45;&gt;有条不紊 -->
<g id="edge132" class="edge"><title>不&#45;&gt;有条不紊</title>
<path fill="none" stroke="black" d="M367.696,-367.813C356.765,-398.935 334.053,-463.601 321.057,-500.603"/>
<polygon fill="black" stroke="black" points="317.678,-499.66 317.666,-510.255 324.283,-501.98 317.678,-499.66"/>
</g>
</g>
</svg>
